<?xml version="1.0" encoding="utf-8" standalone="no"?>
<!DOCTYPE svg PUBLIC "-//W3C//DTD SVG 1.1//EN"
  "http://www.w3.org/Graphics/SVG/1.1/DTD/svg11.dtd">
<svg xmlns:xlink="http://www.w3.org/1999/xlink" width="432pt" height="216pt" viewBox="0 0 432 216" xmlns="http://www.w3.org/2000/svg" version="1.1">
 <metadata>
  <rdf:RDF xmlns:dc="http://purl.org/dc/elements/1.1/" xmlns:cc="http://creativecommons.org/ns#" xmlns:rdf="http://www.w3.org/1999/02/22-rdf-syntax-ns#">
   <cc:Work>
    <dc:type rdf:resource="http://purl.org/dc/dcmitype/StillImage"/>
    <dc:date>2024-05-07T15:37:00.755364</dc:date>
    <dc:format>image/svg+xml</dc:format>
    <dc:creator>
     <cc:Agent>
      <dc:title>Matplotlib v3.8.4, https://matplotlib.org/</dc:title>
     </cc:Agent>
    </dc:creator>
   </cc:Work>
  </rdf:RDF>
 </metadata>
 <defs>
  <style type="text/css">*{stroke-linejoin: round; stroke-linecap: butt}</style>
 </defs>
 <g id="figure_1">
  <g id="patch_1">
   <path d="M 0 216 
L 432 216 
L 432 0 
L 0 0 
z
" style="fill: #ffffff"/>
  </g>
  <g id="axes_1">
   <g id="patch_2">
    <path d="M 54 192.24 
L 388.8 192.24 
L 388.8 25.92 
L 54 25.92 
z
" style="fill: #ffffff"/>
   </g>
   <g id="matplotlib.axis_1">
    <g id="xtick_1">
     <g id="line2d_1">
      <defs>
       <path id="m70130b3272" d="M 0 0 
L 0 3.5 
" style="stroke: #000000; stroke-width: 0.8"/>
      </defs>
      <g>
       <use xlink:href="#m70130b3272" x="54" y="192.24" style="stroke: #000000; stroke-width: 0.8"/>
      </g>
     </g>
     <g id="text_1">
      <!-- 2012 -->
      <g transform="translate(41.275 206.838437) scale(0.1 -0.1)">
       <defs>
        <path id="DejaVuSans-32" d="M 1228 531 
L 3431 531 
L 3431 0 
L 469 0 
L 469 531 
Q 828 903 1448 1529 
Q 2069 2156 2228 2338 
Q 2531 2678 2651 2914 
Q 2772 3150 2772 3378 
Q 2772 3750 2511 3984 
Q 2250 4219 1831 4219 
Q 1534 4219 1204 4116 
Q 875 4013 500 3803 
L 500 4441 
Q 881 4594 1212 4672 
Q 1544 4750 1819 4750 
Q 2544 4750 2975 4387 
Q 3406 4025 3406 3419 
Q 3406 3131 3298 2873 
Q 3191 2616 2906 2266 
Q 2828 2175 2409 1742 
Q 1991 1309 1228 531 
z
" transform="scale(0.015625)"/>
        <path id="DejaVuSans-30" d="M 2034 4250 
Q 1547 4250 1301 3770 
Q 1056 3291 1056 2328 
Q 1056 1369 1301 889 
Q 1547 409 2034 409 
Q 2525 409 2770 889 
Q 3016 1369 3016 2328 
Q 3016 3291 2770 3770 
Q 2525 4250 2034 4250 
z
M 2034 4750 
Q 2819 4750 3233 4129 
Q 3647 3509 3647 2328 
Q 3647 1150 3233 529 
Q 2819 -91 2034 -91 
Q 1250 -91 836 529 
Q 422 1150 422 2328 
Q 422 3509 836 4129 
Q 1250 4750 2034 4750 
z
" transform="scale(0.015625)"/>
        <path id="DejaVuSans-31" d="M 794 531 
L 1825 531 
L 1825 4091 
L 703 3866 
L 703 4441 
L 1819 4666 
L 2450 4666 
L 2450 531 
L 3481 531 
L 3481 0 
L 794 0 
L 794 531 
z
" transform="scale(0.015625)"/>
       </defs>
       <use xlink:href="#DejaVuSans-32"/>
       <use xlink:href="#DejaVuSans-30" x="63.623047"/>
       <use xlink:href="#DejaVuSans-31" x="127.246094"/>
       <use xlink:href="#DejaVuSans-32" x="190.869141"/>
      </g>
     </g>
    </g>
    <g id="xtick_2">
     <g id="line2d_2">
      <g>
       <use xlink:href="#m70130b3272" x="122.094915" y="192.24" style="stroke: #000000; stroke-width: 0.8"/>
      </g>
     </g>
     <g id="text_2">
      <!-- 2013 -->
      <g transform="translate(109.369915 206.838437) scale(0.1 -0.1)">
       <defs>
        <path id="DejaVuSans-33" d="M 2597 2516 
Q 3050 2419 3304 2112 
Q 3559 1806 3559 1356 
Q 3559 666 3084 287 
Q 2609 -91 1734 -91 
Q 1441 -91 1130 -33 
Q 819 25 488 141 
L 488 750 
Q 750 597 1062 519 
Q 1375 441 1716 441 
Q 2309 441 2620 675 
Q 2931 909 2931 1356 
Q 2931 1769 2642 2001 
Q 2353 2234 1838 2234 
L 1294 2234 
L 1294 2753 
L 1863 2753 
Q 2328 2753 2575 2939 
Q 2822 3125 2822 3475 
Q 2822 3834 2567 4026 
Q 2313 4219 1838 4219 
Q 1578 4219 1281 4162 
Q 984 4106 628 3988 
L 628 4550 
Q 988 4650 1302 4700 
Q 1616 4750 1894 4750 
Q 2613 4750 3031 4423 
Q 3450 4097 3450 3541 
Q 3450 3153 3228 2886 
Q 3006 2619 2597 2516 
z
" transform="scale(0.015625)"/>
       </defs>
       <use xlink:href="#DejaVuSans-32"/>
       <use xlink:href="#DejaVuSans-30" x="63.623047"/>
       <use xlink:href="#DejaVuSans-31" x="127.246094"/>
       <use xlink:href="#DejaVuSans-33" x="190.869141"/>
      </g>
     </g>
    </g>
    <g id="xtick_3">
     <g id="line2d_3">
      <g>
       <use xlink:href="#m70130b3272" x="190.189831" y="192.24" style="stroke: #000000; stroke-width: 0.8"/>
      </g>
     </g>
     <g id="text_3">
      <!-- 2014 -->
      <g transform="translate(177.464831 206.838437) scale(0.1 -0.1)">
       <defs>
        <path id="DejaVuSans-34" d="M 2419 4116 
L 825 1625 
L 2419 1625 
L 2419 4116 
z
M 2253 4666 
L 3047 4666 
L 3047 1625 
L 3713 1625 
L 3713 1100 
L 3047 1100 
L 3047 0 
L 2419 0 
L 2419 1100 
L 313 1100 
L 313 1709 
L 2253 4666 
z
" transform="scale(0.015625)"/>
       </defs>
       <use xlink:href="#DejaVuSans-32"/>
       <use xlink:href="#DejaVuSans-30" x="63.623047"/>
       <use xlink:href="#DejaVuSans-31" x="127.246094"/>
       <use xlink:href="#DejaVuSans-34" x="190.869141"/>
      </g>
     </g>
    </g>
    <g id="xtick_4">
     <g id="line2d_4">
      <g>
       <use xlink:href="#m70130b3272" x="258.284746" y="192.24" style="stroke: #000000; stroke-width: 0.8"/>
      </g>
     </g>
     <g id="text_4">
      <!-- 2015 -->
      <g transform="translate(245.559746 206.838437) scale(0.1 -0.1)">
       <defs>
        <path id="DejaVuSans-35" d="M 691 4666 
L 3169 4666 
L 3169 4134 
L 1269 4134 
L 1269 2991 
Q 1406 3038 1543 3061 
Q 1681 3084 1819 3084 
Q 2600 3084 3056 2656 
Q 3513 2228 3513 1497 
Q 3513 744 3044 326 
Q 2575 -91 1722 -91 
Q 1428 -91 1123 -41 
Q 819 9 494 109 
L 494 744 
Q 775 591 1075 516 
Q 1375 441 1709 441 
Q 2250 441 2565 725 
Q 2881 1009 2881 1497 
Q 2881 1984 2565 2268 
Q 2250 2553 1709 2553 
Q 1456 2553 1204 2497 
Q 953 2441 691 2322 
L 691 4666 
z
" transform="scale(0.015625)"/>
       </defs>
       <use xlink:href="#DejaVuSans-32"/>
       <use xlink:href="#DejaVuSans-30" x="63.623047"/>
       <use xlink:href="#DejaVuSans-31" x="127.246094"/>
       <use xlink:href="#DejaVuSans-35" x="190.869141"/>
      </g>
     </g>
    </g>
    <g id="xtick_5">
     <g id="line2d_5">
      <g>
       <use xlink:href="#m70130b3272" x="326.379661" y="192.24" style="stroke: #000000; stroke-width: 0.8"/>
      </g>
     </g>
     <g id="text_5">
      <!-- 2016 -->
      <g transform="translate(313.654661 206.838437) scale(0.1 -0.1)">
       <defs>
        <path id="DejaVuSans-36" d="M 2113 2584 
Q 1688 2584 1439 2293 
Q 1191 2003 1191 1497 
Q 1191 994 1439 701 
Q 1688 409 2113 409 
Q 2538 409 2786 701 
Q 3034 994 3034 1497 
Q 3034 2003 2786 2293 
Q 2538 2584 2113 2584 
z
M 3366 4563 
L 3366 3988 
Q 3128 4100 2886 4159 
Q 2644 4219 2406 4219 
Q 1781 4219 1451 3797 
Q 1122 3375 1075 2522 
Q 1259 2794 1537 2939 
Q 1816 3084 2150 3084 
Q 2853 3084 3261 2657 
Q 3669 2231 3669 1497 
Q 3669 778 3244 343 
Q 2819 -91 2113 -91 
Q 1303 -91 875 529 
Q 447 1150 447 2328 
Q 447 3434 972 4092 
Q 1497 4750 2381 4750 
Q 2619 4750 2861 4703 
Q 3103 4656 3366 4563 
z
" transform="scale(0.015625)"/>
       </defs>
       <use xlink:href="#DejaVuSans-32"/>
       <use xlink:href="#DejaVuSans-30" x="63.623047"/>
       <use xlink:href="#DejaVuSans-31" x="127.246094"/>
       <use xlink:href="#DejaVuSans-36" x="190.869141"/>
      </g>
     </g>
    </g>
    <g id="xtick_6">
     <g id="line2d_6">
      <defs>
       <path id="mdba9c3ab94" d="M 0 0 
L 0 2 
" style="stroke: #000000; stroke-width: 0.6"/>
      </defs>
      <g>
       <use xlink:href="#mdba9c3ab94" x="71.023729" y="192.24" style="stroke: #000000; stroke-width: 0.6"/>
      </g>
     </g>
    </g>
    <g id="xtick_7">
     <g id="line2d_7">
      <g>
       <use xlink:href="#mdba9c3ab94" x="88.047458" y="192.24" style="stroke: #000000; stroke-width: 0.6"/>
      </g>
     </g>
    </g>
    <g id="xtick_8">
     <g id="line2d_8">
      <g>
       <use xlink:href="#mdba9c3ab94" x="105.071186" y="192.24" style="stroke: #000000; stroke-width: 0.6"/>
      </g>
     </g>
    </g>
    <g id="xtick_9">
     <g id="line2d_9">
      <g>
       <use xlink:href="#mdba9c3ab94" x="139.118644" y="192.24" style="stroke: #000000; stroke-width: 0.6"/>
      </g>
     </g>
    </g>
    <g id="xtick_10">
     <g id="line2d_10">
      <g>
       <use xlink:href="#mdba9c3ab94" x="156.142373" y="192.24" style="stroke: #000000; stroke-width: 0.6"/>
      </g>
     </g>
    </g>
    <g id="xtick_11">
     <g id="line2d_11">
      <g>
       <use xlink:href="#mdba9c3ab94" x="173.166102" y="192.24" style="stroke: #000000; stroke-width: 0.6"/>
      </g>
     </g>
    </g>
    <g id="xtick_12">
     <g id="line2d_12">
      <g>
       <use xlink:href="#mdba9c3ab94" x="207.213559" y="192.24" style="stroke: #000000; stroke-width: 0.6"/>
      </g>
     </g>
    </g>
    <g id="xtick_13">
     <g id="line2d_13">
      <g>
       <use xlink:href="#mdba9c3ab94" x="224.237288" y="192.24" style="stroke: #000000; stroke-width: 0.6"/>
      </g>
     </g>
    </g>
    <g id="xtick_14">
     <g id="line2d_14">
      <g>
       <use xlink:href="#mdba9c3ab94" x="241.261017" y="192.24" style="stroke: #000000; stroke-width: 0.6"/>
      </g>
     </g>
    </g>
    <g id="xtick_15">
     <g id="line2d_15">
      <g>
       <use xlink:href="#mdba9c3ab94" x="275.308475" y="192.24" style="stroke: #000000; stroke-width: 0.6"/>
      </g>
     </g>
    </g>
    <g id="xtick_16">
     <g id="line2d_16">
      <g>
       <use xlink:href="#mdba9c3ab94" x="292.332203" y="192.24" style="stroke: #000000; stroke-width: 0.6"/>
      </g>
     </g>
    </g>
    <g id="xtick_17">
     <g id="line2d_17">
      <g>
       <use xlink:href="#mdba9c3ab94" x="309.355932" y="192.24" style="stroke: #000000; stroke-width: 0.6"/>
      </g>
     </g>
    </g>
    <g id="xtick_18">
     <g id="line2d_18">
      <g>
       <use xlink:href="#mdba9c3ab94" x="343.40339" y="192.24" style="stroke: #000000; stroke-width: 0.6"/>
      </g>
     </g>
    </g>
    <g id="xtick_19">
     <g id="line2d_19">
      <g>
       <use xlink:href="#mdba9c3ab94" x="360.427119" y="192.24" style="stroke: #000000; stroke-width: 0.6"/>
      </g>
     </g>
    </g>
    <g id="xtick_20">
     <g id="line2d_20">
      <g>
       <use xlink:href="#mdba9c3ab94" x="377.450847" y="192.24" style="stroke: #000000; stroke-width: 0.6"/>
      </g>
     </g>
    </g>
    <g id="text_6">
     <!-- Date -->
     <g transform="translate(209.449219 220.516562) scale(0.1 -0.1)">
      <defs>
       <path id="DejaVuSans-44" d="M 1259 4147 
L 1259 519 
L 2022 519 
Q 2988 519 3436 956 
Q 3884 1394 3884 2338 
Q 3884 3275 3436 3711 
Q 2988 4147 2022 4147 
L 1259 4147 
z
M 628 4666 
L 1925 4666 
Q 3281 4666 3915 4102 
Q 4550 3538 4550 2338 
Q 4550 1131 3912 565 
Q 3275 0 1925 0 
L 628 0 
L 628 4666 
z
" transform="scale(0.015625)"/>
       <path id="DejaVuSans-61" d="M 2194 1759 
Q 1497 1759 1228 1600 
Q 959 1441 959 1056 
Q 959 750 1161 570 
Q 1363 391 1709 391 
Q 2188 391 2477 730 
Q 2766 1069 2766 1631 
L 2766 1759 
L 2194 1759 
z
M 3341 1997 
L 3341 0 
L 2766 0 
L 2766 531 
Q 2569 213 2275 61 
Q 1981 -91 1556 -91 
Q 1019 -91 701 211 
Q 384 513 384 1019 
Q 384 1609 779 1909 
Q 1175 2209 1959 2209 
L 2766 2209 
L 2766 2266 
Q 2766 2663 2505 2880 
Q 2244 3097 1772 3097 
Q 1472 3097 1187 3025 
Q 903 2953 641 2809 
L 641 3341 
Q 956 3463 1253 3523 
Q 1550 3584 1831 3584 
Q 2591 3584 2966 3190 
Q 3341 2797 3341 1997 
z
" transform="scale(0.015625)"/>
       <path id="DejaVuSans-74" d="M 1172 4494 
L 1172 3500 
L 2356 3500 
L 2356 3053 
L 1172 3053 
L 1172 1153 
Q 1172 725 1289 603 
Q 1406 481 1766 481 
L 2356 481 
L 2356 0 
L 1766 0 
Q 1100 0 847 248 
Q 594 497 594 1153 
L 594 3053 
L 172 3053 
L 172 3500 
L 594 3500 
L 594 4494 
L 1172 4494 
z
" transform="scale(0.015625)"/>
       <path id="DejaVuSans-65" d="M 3597 1894 
L 3597 1613 
L 953 1613 
Q 991 1019 1311 708 
Q 1631 397 2203 397 
Q 2534 397 2845 478 
Q 3156 559 3463 722 
L 3463 178 
Q 3153 47 2828 -22 
Q 2503 -91 2169 -91 
Q 1331 -91 842 396 
Q 353 884 353 1716 
Q 353 2575 817 3079 
Q 1281 3584 2069 3584 
Q 2775 3584 3186 3129 
Q 3597 2675 3597 1894 
z
M 3022 2063 
Q 3016 2534 2758 2815 
Q 2500 3097 2075 3097 
Q 1594 3097 1305 2825 
Q 1016 2553 972 2059 
L 3022 2063 
z
" transform="scale(0.015625)"/>
      </defs>
      <use xlink:href="#DejaVuSans-44"/>
      <use xlink:href="#DejaVuSans-61" x="77.001953"/>
      <use xlink:href="#DejaVuSans-74" x="138.28125"/>
      <use xlink:href="#DejaVuSans-65" x="177.490234"/>
     </g>
    </g>
   </g>
   <g id="matplotlib.axis_2">
    <g id="ytick_1">
     <g id="line2d_21">
      <defs>
       <path id="m6b71fd3390" d="M 0 0 
L -3.5 0 
" style="stroke: #000000; stroke-width: 0.8"/>
      </defs>
      <g>
       <use xlink:href="#m6b71fd3390" x="54" y="177.664967" style="stroke: #000000; stroke-width: 0.8"/>
      </g>
     </g>
     <g id="text_7">
      <!-- 100000 -->
      <g transform="translate(8.825 181.464186) scale(0.1 -0.1)">
       <use xlink:href="#DejaVuSans-31"/>
       <use xlink:href="#DejaVuSans-30" x="63.623047"/>
       <use xlink:href="#DejaVuSans-30" x="127.246094"/>
       <use xlink:href="#DejaVuSans-30" x="190.869141"/>
       <use xlink:href="#DejaVuSans-30" x="254.492188"/>
       <use xlink:href="#DejaVuSans-30" x="318.115234"/>
      </g>
     </g>
    </g>
    <g id="ytick_2">
     <g id="line2d_22">
      <g>
       <use xlink:href="#m6b71fd3390" x="54" y="146.403679" style="stroke: #000000; stroke-width: 0.8"/>
      </g>
     </g>
     <g id="text_8">
      <!-- 110000 -->
      <g transform="translate(8.825 150.202897) scale(0.1 -0.1)">
       <use xlink:href="#DejaVuSans-31"/>
       <use xlink:href="#DejaVuSans-31" x="63.623047"/>
       <use xlink:href="#DejaVuSans-30" x="127.246094"/>
       <use xlink:href="#DejaVuSans-30" x="190.869141"/>
       <use xlink:href="#DejaVuSans-30" x="254.492188"/>
       <use xlink:href="#DejaVuSans-30" x="318.115234"/>
      </g>
     </g>
    </g>
    <g id="ytick_3">
     <g id="line2d_23">
      <g>
       <use xlink:href="#m6b71fd3390" x="54" y="115.14239" style="stroke: #000000; stroke-width: 0.8"/>
      </g>
     </g>
     <g id="text_9">
      <!-- 120000 -->
      <g transform="translate(8.825 118.941609) scale(0.1 -0.1)">
       <use xlink:href="#DejaVuSans-31"/>
       <use xlink:href="#DejaVuSans-32" x="63.623047"/>
       <use xlink:href="#DejaVuSans-30" x="127.246094"/>
       <use xlink:href="#DejaVuSans-30" x="190.869141"/>
       <use xlink:href="#DejaVuSans-30" x="254.492188"/>
       <use xlink:href="#DejaVuSans-30" x="318.115234"/>
      </g>
     </g>
    </g>
    <g id="ytick_4">
     <g id="line2d_24">
      <g>
       <use xlink:href="#m6b71fd3390" x="54" y="83.881102" style="stroke: #000000; stroke-width: 0.8"/>
      </g>
     </g>
     <g id="text_10">
      <!-- 130000 -->
      <g transform="translate(8.825 87.680321) scale(0.1 -0.1)">
       <use xlink:href="#DejaVuSans-31"/>
       <use xlink:href="#DejaVuSans-33" x="63.623047"/>
       <use xlink:href="#DejaVuSans-30" x="127.246094"/>
       <use xlink:href="#DejaVuSans-30" x="190.869141"/>
       <use xlink:href="#DejaVuSans-30" x="254.492188"/>
       <use xlink:href="#DejaVuSans-30" x="318.115234"/>
      </g>
     </g>
    </g>
    <g id="ytick_5">
     <g id="line2d_25">
      <g>
       <use xlink:href="#m6b71fd3390" x="54" y="52.619814" style="stroke: #000000; stroke-width: 0.8"/>
      </g>
     </g>
     <g id="text_11">
      <!-- 140000 -->
      <g transform="translate(8.825 56.419032) scale(0.1 -0.1)">
       <use xlink:href="#DejaVuSans-31"/>
       <use xlink:href="#DejaVuSans-34" x="63.623047"/>
       <use xlink:href="#DejaVuSans-30" x="127.246094"/>
       <use xlink:href="#DejaVuSans-30" x="190.869141"/>
       <use xlink:href="#DejaVuSans-30" x="254.492188"/>
       <use xlink:href="#DejaVuSans-30" x="318.115234"/>
      </g>
     </g>
    </g>
    <g id="text_12">
     <!-- Total wealth -->
     <g transform="translate(2.745312 139.093281) rotate(-90) scale(0.1 -0.1)">
      <defs>
       <path id="DejaVuSans-54" d="M -19 4666 
L 3928 4666 
L 3928 4134 
L 2272 4134 
L 2272 0 
L 1638 0 
L 1638 4134 
L -19 4134 
L -19 4666 
z
" transform="scale(0.015625)"/>
       <path id="DejaVuSans-6f" d="M 1959 3097 
Q 1497 3097 1228 2736 
Q 959 2375 959 1747 
Q 959 1119 1226 758 
Q 1494 397 1959 397 
Q 2419 397 2687 759 
Q 2956 1122 2956 1747 
Q 2956 2369 2687 2733 
Q 2419 3097 1959 3097 
z
M 1959 3584 
Q 2709 3584 3137 3096 
Q 3566 2609 3566 1747 
Q 3566 888 3137 398 
Q 2709 -91 1959 -91 
Q 1206 -91 779 398 
Q 353 888 353 1747 
Q 353 2609 779 3096 
Q 1206 3584 1959 3584 
z
" transform="scale(0.015625)"/>
       <path id="DejaVuSans-6c" d="M 603 4863 
L 1178 4863 
L 1178 0 
L 603 0 
L 603 4863 
z
" transform="scale(0.015625)"/>
       <path id="DejaVuSans-20" transform="scale(0.015625)"/>
       <path id="DejaVuSans-77" d="M 269 3500 
L 844 3500 
L 1563 769 
L 2278 3500 
L 2956 3500 
L 3675 769 
L 4391 3500 
L 4966 3500 
L 4050 0 
L 3372 0 
L 2619 2869 
L 1863 0 
L 1184 0 
L 269 3500 
z
" transform="scale(0.015625)"/>
       <path id="DejaVuSans-68" d="M 3513 2113 
L 3513 0 
L 2938 0 
L 2938 2094 
Q 2938 2591 2744 2837 
Q 2550 3084 2163 3084 
Q 1697 3084 1428 2787 
Q 1159 2491 1159 1978 
L 1159 0 
L 581 0 
L 581 4863 
L 1159 4863 
L 1159 2956 
Q 1366 3272 1645 3428 
Q 1925 3584 2291 3584 
Q 2894 3584 3203 3211 
Q 3513 2838 3513 2113 
z
" transform="scale(0.015625)"/>
      </defs>
      <use xlink:href="#DejaVuSans-54"/>
      <use xlink:href="#DejaVuSans-6f" x="44.083984"/>
      <use xlink:href="#DejaVuSans-74" x="105.265625"/>
      <use xlink:href="#DejaVuSans-61" x="144.474609"/>
      <use xlink:href="#DejaVuSans-6c" x="205.753906"/>
      <use xlink:href="#DejaVuSans-20" x="233.537109"/>
      <use xlink:href="#DejaVuSans-77" x="265.324219"/>
      <use xlink:href="#DejaVuSans-65" x="347.111328"/>
      <use xlink:href="#DejaVuSans-61" x="408.634766"/>
      <use xlink:href="#DejaVuSans-6c" x="469.914062"/>
      <use xlink:href="#DejaVuSans-74" x="497.697266"/>
      <use xlink:href="#DejaVuSans-68" x="536.90625"/>
     </g>
    </g>
   </g>
   <g id="line2d_26">
    <path d="M 54 182.109125 
L 59.674576 183.446366 
L 65.349153 178.830006 
L 71.023729 178.60786 
L 76.698305 174.698293 
L 82.372881 163.085059 
L 88.047458 151.597199 
L 93.722034 160.017089 
L 99.39661 155.538057 
L 105.071186 158.792191 
L 110.745763 168.727484 
L 116.420339 172.514563 
L 122.094915 159.088346 
L 127.769492 151.163658 
L 133.444068 135.188635 
L 139.118644 131.29101 
L 144.79322 144.160959 
L 150.467797 146.794395 
L 156.142373 138.858448 
L 161.816949 155.584693 
L 167.491525 156.07822 
L 173.166102 146.217321 
L 178.840678 147.822284 
L 184.515254 147.44303 
L 190.189831 158.702401 
L 195.864407 146.959576 
L 201.538983 142.10122 
L 207.213559 130.043882 
L 212.888136 127.739428 
L 218.562712 123.804087 
L 224.237288 134.391156 
L 229.911864 124.964155 
L 235.586441 123.978225 
L 241.261017 113.466808 
L 246.935593 98.34087 
L 252.610169 106.387101 
L 258.284746 109.221908 
L 263.959322 96.355394 
L 269.633898 103.948586 
L 275.308475 101.119739 
L 280.983051 96.914353 
L 286.657627 107.834088 
L 292.332203 92.956053 
L 298.00678 110.139518 
L 303.681356 109.88283 
L 309.355932 87.579027 
L 315.030508 89.165166 
L 320.705085 86.112147 
L 326.379661 88.727664 
L 332.054237 95.725682 
L 337.728814 74.490474 
L 343.40339 72.139533 
L 349.077966 69.244053 
L 354.752542 59.508185 
L 360.427119 54.588713 
L 366.101695 55.391497 
L 371.776271 74.354434 
L 377.450847 77.276572 
L 383.125424 60.210245 
L 388.8 37.764632 
" clip-path="url(#pccefa9c323)" style="fill: none; stroke: #1f77b4; stroke-width: 1.5; stroke-linecap: square"/>
   </g>
   <g id="line2d_27">
    <path d="M 54 182.654556 
L 59.674576 184.399405 
L 65.349153 180.330686 
L 71.023729 180.552272 
L 76.698305 176.93361 
L 82.372881 164.672579 
L 88.047458 153.262872 
L 93.722034 160.997867 
L 99.39661 157.145046 
L 105.071186 159.476671 
L 110.745763 168.56845 
L 116.420339 172.637932 
L 122.094915 159.418825 
L 127.769492 149.669935 
L 133.444068 134.386271 
L 139.118644 126.023044 
L 144.79322 143.054455 
L 150.467797 142.622231 
L 156.142373 136.294869 
L 161.816949 152.732182 
L 167.491525 153.412013 
L 173.166102 140.465786 
L 178.840678 142.745862 
L 184.515254 142.51489 
L 190.189831 155.294595 
L 195.864407 145.536958 
L 201.538983 141.806246 
L 207.213559 128.656602 
L 212.888136 125.052086 
L 218.562712 120.858622 
L 224.237288 130.304238 
L 229.911864 119.965043 
L 235.586441 119.165625 
L 241.261017 108.09153 
L 246.935593 91.079692 
L 252.610169 100.188126 
L 258.284746 101.710143 
L 263.959322 88.257262 
L 269.633898 96.176351 
L 275.308475 94.181475 
L 280.983051 91.209988 
L 286.657627 103.379867 
L 292.332203 87.358206 
L 298.00678 106.566167 
L 303.681356 106.072031 
L 309.355932 86.326582 
L 315.030508 90.378485 
L 320.705085 85.863668 
L 326.379661 85.91446 
L 332.054237 91.05547 
L 337.728814 70.014289 
L 343.40339 67.873388 
L 349.077966 65.365047 
L 354.752542 52.193905 
L 360.427119 47.394612 
L 366.101695 51.23433 
L 371.776271 65.285106 
L 377.450847 69.580688 
L 383.125424 58.642685 
L 388.8 37.649669 
" clip-path="url(#pccefa9c323)" style="fill: none; stroke: #ff7f0e; stroke-width: 1.5; stroke-linecap: square"/>
   </g>
   <g id="line2d_28">
    <path d="M 54 181.277288 
L 59.674576 183.2413 
L 65.349153 179.463702 
L 71.023729 180.578678 
L 76.698305 174.951576 
L 82.372881 163.182394 
L 88.047458 151.065473 
L 93.722034 158.338476 
L 99.39661 153.213029 
L 105.071186 156.123503 
L 110.745763 166.486021 
L 116.420339 171.468022 
L 122.094915 158.675913 
L 127.769492 150.510227 
L 133.444068 134.458094 
L 139.118644 128.357937 
L 144.79322 143.106942 
L 150.467797 143.932205 
L 156.142373 137.17668 
L 161.816949 153.35804 
L 167.491525 153.778247 
L 173.166102 143.256859 
L 178.840678 144.128054 
L 184.515254 144.405064 
L 190.189831 157.381758 
L 195.864407 146.805877 
L 201.538983 143.858893 
L 207.213559 131.410498 
L 212.888136 127.971436 
L 218.562712 122.7801 
L 224.237288 130.994672 
L 229.911864 120.266927 
L 235.586441 119.819176 
L 241.261017 108.336973 
L 246.935593 93.253165 
L 252.610169 101.332752 
L 258.284746 104.149311 
L 263.959322 86.550821 
L 269.633898 95.047981 
L 275.308475 91.304813 
L 280.983051 88.354461 
L 286.657627 98.274354 
L 292.332203 83.352737 
L 298.00678 105.470917 
L 303.681356 105.149801 
L 309.355932 83.255186 
L 315.030508 85.714641 
L 320.705085 83.832565 
L 326.379661 86.404857 
L 332.054237 89.602456 
L 337.728814 67.543816 
L 343.40339 64.972471 
L 349.077966 62.354092 
L 354.752542 49.057292 
L 360.427119 43.971034 
L 366.101695 50.352661 
L 371.776271 59.274374 
L 377.450847 66.280748 
L 383.125424 55.11841 
L 388.8 33.48 
" clip-path="url(#pccefa9c323)" style="fill: none; stroke: #2ca02c; stroke-width: 1.5; stroke-linecap: square"/>
   </g>
   <g id="line2d_29">
    <path d="M 54 182.032163 
L 59.674576 184.68 
L 65.349153 180.930174 
L 71.023729 182.246986 
L 76.698305 177.064167 
L 82.372881 164.679314 
L 88.047458 153.410181 
L 93.722034 160.400523 
L 99.39661 156.054452 
L 105.071186 157.660786 
L 110.745763 167.574725 
L 116.420339 172.332867 
L 122.094915 162.123158 
L 127.769492 155.105754 
L 133.444068 139.929036 
L 139.118644 136.078414 
L 144.79322 147.744338 
L 150.467797 152.968557 
L 156.142373 143.488012 
L 161.816949 158.159245 
L 167.491525 158.602359 
L 173.166102 148.452875 
L 178.840678 148.419487 
L 184.515254 146.574654 
L 190.189831 160.019944 
L 195.864407 153.878306 
L 201.538983 148.833038 
L 207.213559 135.316243 
L 212.888136 134.239916 
L 218.562712 130.335159 
L 224.237288 142.10298 
L 229.911864 133.916647 
L 235.586441 131.896048 
L 241.261017 126.878427 
L 246.935593 113.206403 
L 252.610169 123.31596 
L 258.284746 128.561125 
L 263.959322 120.280517 
L 269.633898 129.598239 
L 275.308475 126.890658 
L 280.983051 122.265803 
L 286.657627 131.343531 
L 292.332203 116.554875 
L 298.00678 133.972157 
L 303.681356 132.362226 
L 309.355932 116.796554 
L 315.030508 116.55296 
L 320.705085 114.820704 
L 326.379661 121.628856 
L 332.054237 131.782241 
L 337.728814 114.394943 
L 343.40339 110.470362 
L 349.077966 106.692973 
L 354.752542 105.902675 
L 360.427119 102.38113 
L 366.101695 97.635262 
L 371.776271 120.609184 
L 377.450847 119.459109 
L 383.125424 97.22034 
L 388.8 80.337558 
" clip-path="url(#pccefa9c323)" style="fill: none; stroke: #d62728; stroke-width: 1.5; stroke-linecap: square"/>
   </g>
   <g id="patch_3">
    <path d="M 54 192.24 
L 54 25.92 
" style="fill: none; stroke: #000000; stroke-width: 0.8; stroke-linejoin: miter; stroke-linecap: square"/>
   </g>
   <g id="patch_4">
    <path d="M 388.8 192.24 
L 388.8 25.92 
" style="fill: none; stroke: #000000; stroke-width: 0.8; stroke-linejoin: miter; stroke-linecap: square"/>
   </g>
   <g id="patch_5">
    <path d="M 54 192.24 
L 388.8 192.24 
" style="fill: none; stroke: #000000; stroke-width: 0.8; stroke-linejoin: miter; stroke-linecap: square"/>
   </g>
   <g id="patch_6">
    <path d="M 54 25.92 
L 388.8 25.92 
" style="fill: none; stroke: #000000; stroke-width: 0.8; stroke-linejoin: miter; stroke-linecap: square"/>
   </g>
   <g id="text_13">
    <!-- Portfolio wealth evolution -->
    <g transform="translate(144.93375 19.92) scale(0.12 -0.12)">
     <defs>
      <path id="DejaVuSans-50" d="M 1259 4147 
L 1259 2394 
L 2053 2394 
Q 2494 2394 2734 2622 
Q 2975 2850 2975 3272 
Q 2975 3691 2734 3919 
Q 2494 4147 2053 4147 
L 1259 4147 
z
M 628 4666 
L 2053 4666 
Q 2838 4666 3239 4311 
Q 3641 3956 3641 3272 
Q 3641 2581 3239 2228 
Q 2838 1875 2053 1875 
L 1259 1875 
L 1259 0 
L 628 0 
L 628 4666 
z
" transform="scale(0.015625)"/>
      <path id="DejaVuSans-72" d="M 2631 2963 
Q 2534 3019 2420 3045 
Q 2306 3072 2169 3072 
Q 1681 3072 1420 2755 
Q 1159 2438 1159 1844 
L 1159 0 
L 581 0 
L 581 3500 
L 1159 3500 
L 1159 2956 
Q 1341 3275 1631 3429 
Q 1922 3584 2338 3584 
Q 2397 3584 2469 3576 
Q 2541 3569 2628 3553 
L 2631 2963 
z
" transform="scale(0.015625)"/>
      <path id="DejaVuSans-66" d="M 2375 4863 
L 2375 4384 
L 1825 4384 
Q 1516 4384 1395 4259 
Q 1275 4134 1275 3809 
L 1275 3500 
L 2222 3500 
L 2222 3053 
L 1275 3053 
L 1275 0 
L 697 0 
L 697 3053 
L 147 3053 
L 147 3500 
L 697 3500 
L 697 3744 
Q 697 4328 969 4595 
Q 1241 4863 1831 4863 
L 2375 4863 
z
" transform="scale(0.015625)"/>
      <path id="DejaVuSans-69" d="M 603 3500 
L 1178 3500 
L 1178 0 
L 603 0 
L 603 3500 
z
M 603 4863 
L 1178 4863 
L 1178 4134 
L 603 4134 
L 603 4863 
z
" transform="scale(0.015625)"/>
      <path id="DejaVuSans-76" d="M 191 3500 
L 800 3500 
L 1894 563 
L 2988 3500 
L 3597 3500 
L 2284 0 
L 1503 0 
L 191 3500 
z
" transform="scale(0.015625)"/>
      <path id="DejaVuSans-75" d="M 544 1381 
L 544 3500 
L 1119 3500 
L 1119 1403 
Q 1119 906 1312 657 
Q 1506 409 1894 409 
Q 2359 409 2629 706 
Q 2900 1003 2900 1516 
L 2900 3500 
L 3475 3500 
L 3475 0 
L 2900 0 
L 2900 538 
Q 2691 219 2414 64 
Q 2138 -91 1772 -91 
Q 1169 -91 856 284 
Q 544 659 544 1381 
z
M 1991 3584 
L 1991 3584 
z
" transform="scale(0.015625)"/>
      <path id="DejaVuSans-6e" d="M 3513 2113 
L 3513 0 
L 2938 0 
L 2938 2094 
Q 2938 2591 2744 2837 
Q 2550 3084 2163 3084 
Q 1697 3084 1428 2787 
Q 1159 2491 1159 1978 
L 1159 0 
L 581 0 
L 581 3500 
L 1159 3500 
L 1159 2956 
Q 1366 3272 1645 3428 
Q 1925 3584 2291 3584 
Q 2894 3584 3203 3211 
Q 3513 2838 3513 2113 
z
" transform="scale(0.015625)"/>
     </defs>
     <use xlink:href="#DejaVuSans-50"/>
     <use xlink:href="#DejaVuSans-6f" x="56.677734"/>
     <use xlink:href="#DejaVuSans-72" x="117.859375"/>
     <use xlink:href="#DejaVuSans-74" x="158.972656"/>
     <use xlink:href="#DejaVuSans-66" x="198.181641"/>
     <use xlink:href="#DejaVuSans-6f" x="233.386719"/>
     <use xlink:href="#DejaVuSans-6c" x="294.568359"/>
     <use xlink:href="#DejaVuSans-69" x="322.351562"/>
     <use xlink:href="#DejaVuSans-6f" x="350.134766"/>
     <use xlink:href="#DejaVuSans-20" x="411.316406"/>
     <use xlink:href="#DejaVuSans-77" x="443.103516"/>
     <use xlink:href="#DejaVuSans-65" x="524.890625"/>
     <use xlink:href="#DejaVuSans-61" x="586.414062"/>
     <use xlink:href="#DejaVuSans-6c" x="647.693359"/>
     <use xlink:href="#DejaVuSans-74" x="675.476562"/>
     <use xlink:href="#DejaVuSans-68" x="714.685547"/>
     <use xlink:href="#DejaVuSans-20" x="778.064453"/>
     <use xlink:href="#DejaVuSans-65" x="809.851562"/>
     <use xlink:href="#DejaVuSans-76" x="871.375"/>
     <use xlink:href="#DejaVuSans-6f" x="930.554688"/>
     <use xlink:href="#DejaVuSans-6c" x="991.736328"/>
     <use xlink:href="#DejaVuSans-75" x="1019.519531"/>
     <use xlink:href="#DejaVuSans-74" x="1082.898438"/>
     <use xlink:href="#DejaVuSans-69" x="1122.107422"/>
     <use xlink:href="#DejaVuSans-6f" x="1149.890625"/>
     <use xlink:href="#DejaVuSans-6e" x="1211.072266"/>
    </g>
   </g>
   <g id="legend_1">
    <g id="patch_7">
     <path d="M 61 92.6325 
L 171.196875 92.6325 
Q 173.196875 92.6325 173.196875 90.6325 
L 173.196875 32.92 
Q 173.196875 30.92 171.196875 30.92 
L 61 30.92 
Q 59 30.92 59 32.92 
L 59 90.6325 
Q 59 92.6325 61 92.6325 
z
" style="fill: #ffffff; opacity: 0.8; stroke: #cccccc; stroke-linejoin: miter"/>
    </g>
    <g id="line2d_30">
     <path d="M 63 39.018438 
L 73 39.018438 
L 83 39.018438 
" style="fill: none; stroke: #1f77b4; stroke-width: 1.5; stroke-linecap: square"/>
    </g>
    <g id="text_14">
     <!-- OLS portfolio -->
     <g transform="translate(91 42.518438) scale(0.1 -0.1)">
      <defs>
       <path id="DejaVuSans-4f" d="M 2522 4238 
Q 1834 4238 1429 3725 
Q 1025 3213 1025 2328 
Q 1025 1447 1429 934 
Q 1834 422 2522 422 
Q 3209 422 3611 934 
Q 4013 1447 4013 2328 
Q 4013 3213 3611 3725 
Q 3209 4238 2522 4238 
z
M 2522 4750 
Q 3503 4750 4090 4092 
Q 4678 3434 4678 2328 
Q 4678 1225 4090 567 
Q 3503 -91 2522 -91 
Q 1538 -91 948 565 
Q 359 1222 359 2328 
Q 359 3434 948 4092 
Q 1538 4750 2522 4750 
z
" transform="scale(0.015625)"/>
       <path id="DejaVuSans-4c" d="M 628 4666 
L 1259 4666 
L 1259 531 
L 3531 531 
L 3531 0 
L 628 0 
L 628 4666 
z
" transform="scale(0.015625)"/>
       <path id="DejaVuSans-53" d="M 3425 4513 
L 3425 3897 
Q 3066 4069 2747 4153 
Q 2428 4238 2131 4238 
Q 1616 4238 1336 4038 
Q 1056 3838 1056 3469 
Q 1056 3159 1242 3001 
Q 1428 2844 1947 2747 
L 2328 2669 
Q 3034 2534 3370 2195 
Q 3706 1856 3706 1288 
Q 3706 609 3251 259 
Q 2797 -91 1919 -91 
Q 1588 -91 1214 -16 
Q 841 59 441 206 
L 441 856 
Q 825 641 1194 531 
Q 1563 422 1919 422 
Q 2459 422 2753 634 
Q 3047 847 3047 1241 
Q 3047 1584 2836 1778 
Q 2625 1972 2144 2069 
L 1759 2144 
Q 1053 2284 737 2584 
Q 422 2884 422 3419 
Q 422 4038 858 4394 
Q 1294 4750 2059 4750 
Q 2388 4750 2728 4690 
Q 3069 4631 3425 4513 
z
" transform="scale(0.015625)"/>
       <path id="DejaVuSans-70" d="M 1159 525 
L 1159 -1331 
L 581 -1331 
L 581 3500 
L 1159 3500 
L 1159 2969 
Q 1341 3281 1617 3432 
Q 1894 3584 2278 3584 
Q 2916 3584 3314 3078 
Q 3713 2572 3713 1747 
Q 3713 922 3314 415 
Q 2916 -91 2278 -91 
Q 1894 -91 1617 61 
Q 1341 213 1159 525 
z
M 3116 1747 
Q 3116 2381 2855 2742 
Q 2594 3103 2138 3103 
Q 1681 3103 1420 2742 
Q 1159 2381 1159 1747 
Q 1159 1113 1420 752 
Q 1681 391 2138 391 
Q 2594 391 2855 752 
Q 3116 1113 3116 1747 
z
" transform="scale(0.015625)"/>
      </defs>
      <use xlink:href="#DejaVuSans-4f"/>
      <use xlink:href="#DejaVuSans-4c" x="78.710938"/>
      <use xlink:href="#DejaVuSans-53" x="134.423828"/>
      <use xlink:href="#DejaVuSans-20" x="197.900391"/>
      <use xlink:href="#DejaVuSans-70" x="229.6875"/>
      <use xlink:href="#DejaVuSans-6f" x="293.164062"/>
      <use xlink:href="#DejaVuSans-72" x="354.345703"/>
      <use xlink:href="#DejaVuSans-74" x="395.458984"/>
      <use xlink:href="#DejaVuSans-66" x="434.667969"/>
      <use xlink:href="#DejaVuSans-6f" x="469.873047"/>
      <use xlink:href="#DejaVuSans-6c" x="531.054688"/>
      <use xlink:href="#DejaVuSans-69" x="558.837891"/>
      <use xlink:href="#DejaVuSans-6f" x="586.621094"/>
     </g>
    </g>
    <g id="line2d_31">
     <path d="M 63 53.696562 
L 73 53.696562 
L 83 53.696562 
" style="fill: none; stroke: #ff7f0e; stroke-width: 1.5; stroke-linecap: square"/>
    </g>
    <g id="text_15">
     <!-- FF portfolio -->
     <g transform="translate(91 57.196562) scale(0.1 -0.1)">
      <defs>
       <path id="DejaVuSans-46" d="M 628 4666 
L 3309 4666 
L 3309 4134 
L 1259 4134 
L 1259 2759 
L 3109 2759 
L 3109 2228 
L 1259 2228 
L 1259 0 
L 628 0 
L 628 4666 
z
" transform="scale(0.015625)"/>
      </defs>
      <use xlink:href="#DejaVuSans-46"/>
      <use xlink:href="#DejaVuSans-46" x="57.519531"/>
      <use xlink:href="#DejaVuSans-20" x="115.039062"/>
      <use xlink:href="#DejaVuSans-70" x="146.826172"/>
      <use xlink:href="#DejaVuSans-6f" x="210.302734"/>
      <use xlink:href="#DejaVuSans-72" x="271.484375"/>
      <use xlink:href="#DejaVuSans-74" x="312.597656"/>
      <use xlink:href="#DejaVuSans-66" x="351.806641"/>
      <use xlink:href="#DejaVuSans-6f" x="387.011719"/>
      <use xlink:href="#DejaVuSans-6c" x="448.193359"/>
      <use xlink:href="#DejaVuSans-69" x="475.976562"/>
      <use xlink:href="#DejaVuSans-6f" x="503.759766"/>
     </g>
    </g>
    <g id="line2d_32">
     <path d="M 63 68.374687 
L 73 68.374687 
L 83 68.374687 
" style="fill: none; stroke: #2ca02c; stroke-width: 1.5; stroke-linecap: square"/>
    </g>
    <g id="text_16">
     <!-- LASSO portfolio -->
     <g transform="translate(91 71.874687) scale(0.1 -0.1)">
      <defs>
       <path id="DejaVuSans-41" d="M 2188 4044 
L 1331 1722 
L 3047 1722 
L 2188 4044 
z
M 1831 4666 
L 2547 4666 
L 4325 0 
L 3669 0 
L 3244 1197 
L 1141 1197 
L 716 0 
L 50 0 
L 1831 4666 
z
" transform="scale(0.015625)"/>
      </defs>
      <use xlink:href="#DejaVuSans-4c"/>
      <use xlink:href="#DejaVuSans-41" x="57.962891"/>
      <use xlink:href="#DejaVuSans-53" x="126.371094"/>
      <use xlink:href="#DejaVuSans-53" x="189.847656"/>
      <use xlink:href="#DejaVuSans-4f" x="253.324219"/>
      <use xlink:href="#DejaVuSans-20" x="332.035156"/>
      <use xlink:href="#DejaVuSans-70" x="363.822266"/>
      <use xlink:href="#DejaVuSans-6f" x="427.298828"/>
      <use xlink:href="#DejaVuSans-72" x="488.480469"/>
      <use xlink:href="#DejaVuSans-74" x="529.59375"/>
      <use xlink:href="#DejaVuSans-66" x="568.802734"/>
      <use xlink:href="#DejaVuSans-6f" x="604.007812"/>
      <use xlink:href="#DejaVuSans-6c" x="665.189453"/>
      <use xlink:href="#DejaVuSans-69" x="692.972656"/>
      <use xlink:href="#DejaVuSans-6f" x="720.755859"/>
     </g>
    </g>
    <g id="line2d_33">
     <path d="M 63 83.052813 
L 73 83.052813 
L 83 83.052813 
" style="fill: none; stroke: #d62728; stroke-width: 1.5; stroke-linecap: square"/>
    </g>
    <g id="text_17">
     <!-- BSS portfolio -->
     <g transform="translate(91 86.552813) scale(0.1 -0.1)">
      <defs>
       <path id="DejaVuSans-42" d="M 1259 2228 
L 1259 519 
L 2272 519 
Q 2781 519 3026 730 
Q 3272 941 3272 1375 
Q 3272 1813 3026 2020 
Q 2781 2228 2272 2228 
L 1259 2228 
z
M 1259 4147 
L 1259 2741 
L 2194 2741 
Q 2656 2741 2882 2914 
Q 3109 3088 3109 3444 
Q 3109 3797 2882 3972 
Q 2656 4147 2194 4147 
L 1259 4147 
z
M 628 4666 
L 2241 4666 
Q 2963 4666 3353 4366 
Q 3744 4066 3744 3513 
Q 3744 3084 3544 2831 
Q 3344 2578 2956 2516 
Q 3422 2416 3680 2098 
Q 3938 1781 3938 1306 
Q 3938 681 3513 340 
Q 3088 0 2303 0 
L 628 0 
L 628 4666 
z
" transform="scale(0.015625)"/>
      </defs>
      <use xlink:href="#DejaVuSans-42"/>
      <use xlink:href="#DejaVuSans-53" x="66.853516"/>
      <use xlink:href="#DejaVuSans-53" x="130.330078"/>
      <use xlink:href="#DejaVuSans-20" x="193.806641"/>
      <use xlink:href="#DejaVuSans-70" x="225.59375"/>
      <use xlink:href="#DejaVuSans-6f" x="289.070312"/>
      <use xlink:href="#DejaVuSans-72" x="350.251953"/>
      <use xlink:href="#DejaVuSans-74" x="391.365234"/>
      <use xlink:href="#DejaVuSans-66" x="430.574219"/>
      <use xlink:href="#DejaVuSans-6f" x="465.779297"/>
      <use xlink:href="#DejaVuSans-6c" x="526.960938"/>
      <use xlink:href="#DejaVuSans-69" x="554.744141"/>
      <use xlink:href="#DejaVuSans-6f" x="582.527344"/>
     </g>
    </g>
   </g>
  </g>
 </g>
 <defs>
  <clipPath id="pccefa9c323">
   <rect x="54" y="25.92" width="334.8" height="166.32"/>
  </clipPath>
 </defs>
</svg>
